<svg width="148" height="18" viewBox="0 0 148 18" fill="none" xmlns="http://www.w3.org/2000/svg">
<path d="M9.08008 0.199997C10.6641 0.199997 12.0881 0.439997 13.3521 0.919998C14.6161 1.4 15.6161 2.112 16.3521 3.056C17.1041 3.984 17.4801 5.12 17.4801 6.464H12.4161C12.4161 5.776 12.1121 5.224 11.5041 4.808C10.8961 4.376 10.1601 4.16 9.29608 4.16C8.04808 4.16 7.10408 4.496 6.46408 5.168C5.82408 5.824 5.50408 6.76 5.50408 7.976V9.512C5.50408 10.728 5.82408 11.672 6.46408 12.344C7.10408 13 8.04808 13.328 9.29608 13.328C10.1601 13.328 10.8961 13.128 11.5041 12.728C12.1121 12.312 12.4161 11.784 12.4161 11.144H8.67208V7.784H17.4801V17H14.7441L14.2161 15.368C12.7121 16.648 10.7441 17.288 8.31208 17.288C5.57608 17.288 3.52008 16.576 2.14408 15.152C0.768078 13.712 0.0800781 11.576 0.0800781 8.744C0.0800781 5.944 0.856078 3.824 2.40808 2.384C3.97608 0.927997 6.20008 0.199997 9.08008 0.199997Z" fill="#8AC926"/>
<path d="M28.8563 4.016C29.2243 4.016 29.5523 4.064 29.8403 4.16C30.1283 4.24 30.2723 4.288 30.2723 4.304V8.312H28.7363C27.7443 8.312 27.0243 8.568 26.5763 9.08C26.1443 9.592 25.9283 10.352 25.9283 11.36V17H21.1523V4.328H25.0643L25.3763 6.248C25.6643 5.512 26.1203 4.96 26.7443 4.592C27.3683 4.208 28.0723 4.016 28.8563 4.016Z" fill="#8AC926"/>
<path d="M39.4633 4.04C41.7833 4.04 43.5513 4.584 44.7673 5.672C45.9993 6.76 46.6153 8.424 46.6153 10.664V11.48H37.1113C37.1113 12.392 37.3113 13.08 37.7113 13.544C38.1273 14.008 38.7753 14.24 39.6553 14.24C40.4553 14.24 41.0393 14.072 41.4073 13.736C41.7913 13.4 41.9833 12.952 41.9833 12.392H46.6153C46.6153 13.928 46.0313 15.128 44.8633 15.992C43.6953 16.856 41.9913 17.288 39.7513 17.288C37.3993 17.288 35.5753 16.744 34.2793 15.656C32.9833 14.552 32.3353 12.888 32.3353 10.664C32.3353 8.488 32.9673 6.84 34.2313 5.72C35.4953 4.6 37.2393 4.04 39.4633 4.04ZM39.6553 7.088C38.1513 7.088 37.3113 7.8 37.1353 9.224H41.7913C41.7913 8.568 41.5993 8.048 41.2153 7.664C40.8473 7.28 40.3273 7.088 39.6553 7.088Z" fill="#8AC926"/>
<path d="M56.1911 4.04C58.5111 4.04 60.2791 4.584 61.4951 5.672C62.7271 6.76 63.3431 8.424 63.3431 10.664V11.48H53.8391C53.8391 12.392 54.0391 13.08 54.4391 13.544C54.8551 14.008 55.5031 14.24 56.3831 14.24C57.1831 14.24 57.7671 14.072 58.1351 13.736C58.5191 13.4 58.7111 12.952 58.7111 12.392H63.3431C63.3431 13.928 62.7591 15.128 61.5911 15.992C60.4231 16.856 58.7191 17.288 56.4791 17.288C54.1271 17.288 52.3031 16.744 51.0071 15.656C49.7111 14.552 49.0631 12.888 49.0631 10.664C49.0631 8.488 49.6951 6.84 50.9591 5.72C52.2231 4.6 53.9671 4.04 56.1911 4.04ZM56.3831 7.088C54.8791 7.088 54.0391 7.8 53.8631 9.224H58.5191C58.5191 8.568 58.3271 8.048 57.9431 7.664C57.5751 7.28 57.0551 7.088 56.3831 7.088Z" fill="#8AC926"/>
<path d="M75.103 4.04C76.575 4.04 77.6789 4.448 78.4149 5.264C79.1509 6.08 79.519 7.256 79.519 8.792V17H74.743V9.368C74.743 8.824 74.599 8.392 74.311 8.072C74.039 7.736 73.6469 7.568 73.1349 7.568C72.5429 7.568 72.063 7.76 71.695 8.144C71.327 8.528 71.143 9 71.143 9.56V17H66.367V4.328H70.279L70.591 6.248C71.087 5.576 71.735 5.04 72.535 4.64C73.351 4.24 74.207 4.04 75.103 4.04Z" fill="#8AC926"/>
<path d="M97.6148 17V11.048C97.6148 10.312 97.6388 9.56 97.6868 8.792C97.7508 8.008 97.8148 7.352 97.8788 6.824C97.9428 6.296 97.9828 5.96 97.9988 5.816H97.9028L94.8548 17H90.7028L87.6308 5.84H87.5348C87.5508 5.984 87.5908 6.32 87.6548 6.848C87.7348 7.36 87.8068 8.008 87.8708 8.792C87.9348 9.56 87.9668 10.312 87.9668 11.048V17H83.0948V0.487998H90.5828L93.0788 10.016H93.1748L95.6468 0.487998H102.871V17H97.6148Z" fill="#8AC926"/>
<path d="M112.743 4.04C114.679 4.04 116.255 4.368 117.471 5.024C118.687 5.664 119.295 6.712 119.295 8.168V13.112C119.295 13.384 119.359 13.608 119.487 13.784C119.615 13.96 119.807 14.048 120.063 14.048H120.927V16.808C120.879 16.84 120.751 16.896 120.543 16.976C120.351 17.04 120.071 17.104 119.703 17.168C119.335 17.248 118.911 17.288 118.431 17.288C117.503 17.288 116.735 17.152 116.127 16.88C115.535 16.592 115.127 16.2 114.903 15.704C114.295 16.184 113.615 16.568 112.863 16.856C112.111 17.144 111.231 17.288 110.223 17.288C107.247 17.288 105.759 16.104 105.759 13.736C105.759 12.504 106.087 11.568 106.743 10.928C107.415 10.272 108.375 9.824 109.623 9.584C110.871 9.344 112.503 9.224 114.519 9.224V8.6C114.519 8.104 114.343 7.728 113.991 7.472C113.655 7.216 113.215 7.088 112.671 7.088C112.175 7.088 111.743 7.176 111.375 7.352C111.023 7.528 110.847 7.808 110.847 8.192V8.288H106.143C106.127 8.208 106.119 8.096 106.119 7.952C106.119 6.752 106.687 5.8 107.823 5.096C108.975 4.392 110.615 4.04 112.743 4.04ZM114.519 11.48C113.159 11.48 112.151 11.632 111.495 11.936C110.855 12.224 110.535 12.616 110.535 13.112C110.535 13.912 111.079 14.312 112.167 14.312C112.791 14.312 113.335 14.144 113.799 13.808C114.279 13.472 114.519 13.056 114.519 12.56V11.48Z" fill="#8AC926"/>
<path d="M131.256 4.328V7.568H128.568V12.392C128.568 12.968 128.664 13.392 128.856 13.664C129.048 13.92 129.4 14.048 129.912 14.048H131.256V16.856C130.872 16.984 130.376 17.088 129.768 17.168C129.16 17.248 128.632 17.288 128.184 17.288C126.776 17.288 125.688 17.032 124.92 16.52C124.168 16.008 123.792 15.136 123.792 13.904V7.568H122.016V4.328H123.984L125.016 0.487998H128.568V4.328H131.256Z" fill="#8AC926"/>
<path d="M140.744 4.04C143.064 4.04 144.832 4.584 146.048 5.672C147.28 6.76 147.896 8.424 147.896 10.664V11.48H138.392C138.392 12.392 138.592 13.08 138.992 13.544C139.408 14.008 140.056 14.24 140.936 14.24C141.736 14.24 142.32 14.072 142.688 13.736C143.072 13.4 143.264 12.952 143.264 12.392H147.896C147.896 13.928 147.312 15.128 146.144 15.992C144.976 16.856 143.272 17.288 141.032 17.288C138.68 17.288 136.856 16.744 135.56 15.656C134.264 14.552 133.616 12.888 133.616 10.664C133.616 8.488 134.248 6.84 135.512 5.72C136.776 4.6 138.52 4.04 140.744 4.04ZM140.936 7.088C139.432 7.088 138.592 7.8 138.416 9.224H143.072C143.072 8.568 142.88 8.048 142.496 7.664C142.128 7.28 141.608 7.088 140.936 7.088Z" fill="#8AC926"/>
</svg>
